<svg id="Capa_1" enable-background="new 0 0 512 512" height="512" viewBox="0 0 512 512" width="512" xmlns="http://www.w3.org/2000/svg"><g><g><g><g><g><g><g><g><circle cx="256" cy="256" fill="#ff9500" r="256"/></g></g></g></g></g></g></g><path d="m512 256c0-6.796-.265-13.53-.785-20.193l-235.016-235.016-36.661 156.771-60.75 54.324 46.7 46.7 11.776 67.748-58.476 7.836 49.865 49.865-27.739 21.341 55.086 55.087v51.537c141.385 0 256-114.615 256-256z" fill="#fe6a16"/><g><g><path d="m235.801 255.521v61.291c0 8.625-6.992 15.617-15.617 15.617-8.625 0-15.617-6.992-15.617-15.617v-61.291z" fill="#e9edf5"/></g><g><path d="m307.433 255.521v61.291c0 8.625-6.992 15.617-15.617 15.617-8.625 0-15.617-6.992-15.617-15.617v-61.291z" fill="#cdd2e1"/></g></g><g><path d="m276.199.791c-6.665-.52-13.4-.791-20.199-.791s-13.534.271-20.199.791v159.621h40.398z" fill="#e9edf5"/></g><g><path d="m276.199.791c-6.625-.517-13.321-.787-20.078-.79v160.41h20.078z" fill="#cdd2e1"/></g><g><path d="m322.911 208.629h-133.822v-77.481c0-17.321 14.041-31.362 31.362-31.362h71.097c17.321 0 31.362 14.041 31.362 31.362v77.481z" fill="#fff"/></g><g><path d="m322.911 131.147c0-17.321-14.041-31.362-31.362-31.362h-35.429v108.844h66.79v-77.482z" fill="#e9edf5"/></g><g><path d="m235.801 511.209c6.665.52 13.4.791 20.199.791s13.534-.271 20.199-.791v-159.621h-40.398z" fill="#e9edf5"/></g><g><path d="m276.199 351.588h-20.079v160.41c6.758-.003 13.453-.273 20.079-.79z" fill="#cdd2e1"/></g><g><path d="m189.089 303.371h133.822v77.481c0 17.321-14.041 31.362-31.362 31.362h-71.097c-17.321 0-31.362-14.041-31.362-31.362z" fill="#fff"/></g><g><path d="m256.12 303.371v108.844h35.428c17.321 0 31.362-14.042 31.362-31.363v-77.481z" fill="#e9edf5"/></g><g><path d="m178.787 298.659h154.425v35.511h-154.425z" fill="#cdd2e1"/></g><g><path d="m256.12 298.659h77.092v35.511h-77.092z" fill="#afb4c8"/></g><g><path d="m178.787 176.375h154.425v35.511h-154.425z" fill="#cdd2e1"/></g><g><path d="m256.12 176.375h77.092v35.511h-77.092z" fill="#afb4c8"/></g></g></svg>