<svg height="512" viewBox="0 0 512 512" width="512" xmlns="http://www.w3.org/2000/svg" xmlns:xlink="http://www.w3.org/1999/xlink"><linearGradient id="linear-gradient" gradientUnits="userSpaceOnUse" x1="9.462" x2="496.004" y1="502.538" y2="15.996"><stop offset="0" stop-color="#003f8a"/><stop offset=".518" stop-color="#00d7df"/><stop offset="1" stop-color="#006df0"/></linearGradient><linearGradient id="linear-gradient-3" x1="-96.773" x2="389.769" xlink:href="#linear-gradient" y1="396.304" y2="-90.239"/><linearGradient id="linear-gradient-4" x1="-85.813" x2="400.729" xlink:href="#linear-gradient" y1="407.264" y2="-79.278"/><linearGradient id="linear-gradient-5" x1="7.461" x2="494.004" xlink:href="#linear-gradient" y1="500.538" y2="13.996"/><g id="Electricity"><path d="m431.362 80.638a248 248 0 1 0 -350.724 350.724 248 248 0 1 0 350.724-350.724zm-11.313 339.411a232 232 0 0 1 -328.1-328.1 232 232 0 0 1 328.1 328.1z" fill="url(#linear-gradient)"/><path d="m408.735 103.265a216 216 0 1 0 -305.47 305.47 216 216 0 1 0 305.47-305.47zm-152.735 352.735c-110.28 0-200-89.72-200-200s89.72-200 200-200 200 89.72 200 200-89.72 200-200 200z" fill="url(#linear-gradient)"/><path d="m264 80a8 8 0 0 0 -8-8 184.066 184.066 0 0 0 -171.454 117.09 8 8 0 1 0 14.9 5.82 168.064 168.064 0 0 1 156.554-106.91 8 8 0 0 0 8-8z" fill="url(#linear-gradient-3)"/><path d="m84.347 216.132a8 8 0 0 0 -9.313 6.423 185.624 185.624 0 0 0 -3.034 33.445 8 8 0 0 0 16 0 169.519 169.519 0 0 1 2.771-30.555 8 8 0 0 0 -6.424-9.313z" fill="url(#linear-gradient-4)"/><path d="m336 224h-33.336l31.783-43.264a8 8 0 0 0 -6.447-12.736h-56a8 8 0 0 0 -6.47 3.294l-64 88a8 8 0 0 0 6.47 12.706h36.184l-27.612 69.029a8 8 0 0 0 13.085 8.628l112-112a8 8 0 0 0 -5.657-13.657zm-90.1 86.783 17.525-43.812a8 8 0 0 0 -7.425-10.971h-32.29l52.364-72h36.126l-31.783 43.264a8 8 0 0 0 6.443 12.736h29.826z" fill="url(#linear-gradient-5)"/></g></svg>